<svg xmlns="http://www.w3.org/2000/svg" width="856" height="642"><path d="M 581.522 484.449 C 582.62 478.727 583.722 474.303 584.82 471.181 C 585.923 468.06 588.049 463.332 591.203 457.002 C 593.692 462.935 595.381 467.297 596.264 470.088 C 597.148 472.884 597.586 475.247 597.586 477.178 C 597.683 475.331 598.195 473.331 599.126 471.181 C 600.056 469.028 601.74 465.938 604.187 461.91 C 606.89 466.781 608.797 470.474 609.905 473 C 611.017 475.522 612.408 479.341 614.087 484.449 Z M 504.761 498.406 C 505.673 492.684 506.585 488.26 507.496 485.138 C 508.408 482.016 510.171 477.29 512.781 470.958 C 514.847 476.89 516.242 481.253 516.977 484.045 C 517.708 486.841 518.071 489.204 518.071 491.135 C 518.15 489.288 518.573 487.287 519.345 485.138 C 520.118 482.984 521.513 479.895 523.537 475.866 C 525.779 480.737 527.361 484.431 528.278 486.957 C 529.199 489.478 530.352 493.298 531.743 498.406 Z" fill="hsl(40, 37%, 43%)"></path><path d="M 476.727 488.381 L 476.727 463.911 L 502.658 463.911 L 502.658 488.381 M 529.366 489.423 L 529.366 474.066 L 563.336 474.066 L 563.336 494.628" fill="#f8dc92"></path><path d="M 563.076 525.347 L 563.076 483.696 L 610.272 483.696 L 610.272 525.114" fill="#fadba4"></path><path d="M 474.136 504.524 L 474.136 479.532 L 479.318 479.532 L 479.318 483.956 L 482.43 483.956 L 482.43 479.532 L 487.878 479.532 L 487.878 483.956 L 490.99 483.956 L 490.99 479.532 L 496.433 479.532 L 496.433 483.956 L 499.546 483.956 L 499.546 479.532 L 506.031 479.532 L 506.031 506.087" fill="#fadba4"></path><path d="M 606.122 525.347 L 606.122 463.911 L 631.537 463.911 L 631.537 524.998 M 468.948 504.003 L 468.948 525.086 L 513.028 525.086 L 513.028 518.266 C 513.028 510.385 519.415 504.003 527.291 504.003 C 535.167 504.003 541.555 510.385 541.555 518.266 L 541.555 525.086 L 565.411 525.086 L 565.411 483.956 L 558.67 483.956 L 557.633 489.423 L 552.962 489.423 L 552.962 483.956 L 543.89 483.956 L 543.89 489.423 L 539.22 489.423 L 539.22 483.956 L 530.404 483.956 L 530.404 489.423 L 525.993 489.423 L 525.993 483.956 L 517.178 483.956 L 517.178 492.288 L 508.622 492.288 L 500.583 504.003 Z" fill="hsl(47, 51%, 61%)"></path><path d="M 466.613 520.141 L 515.363 520.141 L 515.363 525.347 L 466.613 525.347 Z M 540.257 520.141 L 567.747 520.141 L 567.747 525.347 L 540.257 525.347 Z" fill="hsl(0, 45%, 65%)"></path><path d="M 482.43 498.797 L 482.43 490.455 C 482.43 489.311 483.361 488.381 484.505 488.381 C 485.65 488.381 486.58 489.311 486.58 490.455 L 486.58 498.797 Z M 579.154 511.814 L 579.154 503.472 C 579.154 502.328 580.084 501.397 581.229 501.397 C 582.373 501.397 583.304 502.328 583.304 503.472 L 583.304 511.814 Z M 493.582 498.797 L 493.582 490.455 C 493.582 489.311 494.512 488.381 495.657 488.381 C 496.801 488.381 497.731 489.311 497.731 490.455 L 497.731 498.797 Z M 590.305 511.814 L 590.305 503.472 C 590.305 502.328 591.235 501.397 592.38 501.397 C 593.524 501.397 594.455 502.328 594.455 503.472 L 594.455 511.814 Z M 617.013 488.381 L 617.013 480.044 C 617.013 478.899 617.944 477.969 619.088 477.969 C 620.237 477.969 621.163 478.899 621.163 480.044 L 621.163 488.381 Z M 617.013 511.293 L 617.013 502.951 C 617.013 501.807 617.944 500.876 619.088 500.876 C 620.237 500.876 621.163 501.807 621.163 502.951 L 621.163 511.293 Z M 551.148 520.141 L 551.148 511.8 C 551.148 509.795 552.776 508.166 554.781 508.166 C 556.786 508.166 558.41 509.795 558.41 511.8 L 558.41 520.141 Z M 539.294 443.521 L 547.258 425.643 L 557.6 448.854 C 558.378 450.235 559.166 451.609 559.964 452.978 C 562.806 457.829 567.128 464.858 572.929 474.066 C 561.708 475.406 553.023 476.076 546.863 476.076 C 540.704 476.076 531.934 475.406 520.55 474.066 C 526.961 464.709 531.543 457.68 534.293 452.978 C 535.986 450.082 537.656 446.929 539.294 443.521 Z M 470.763 463.911 C 475.327 459.506 478.439 454.994 480.095 450.374 C 481.756 445.754 485.04 437.25 489.953 424.862 C 494.847 437.026 498.132 445.529 499.806 450.374 C 501.481 455.218 504.505 459.731 508.883 463.911 C 502.83 464.953 496.433 465.473 489.692 465.473 C 482.951 465.473 476.638 464.953 470.763 463.911 Z M 599.898 464.953 C 604.466 460.548 607.574 456.035 609.235 451.415 C 610.896 446.795 614.18 438.291 619.088 425.903 C 623.982 438.067 627.267 446.571 628.941 451.415 C 630.616 456.26 633.64 460.772 638.018 464.953 C 631.97 465.994 625.573 466.515 618.828 466.515 C 612.087 466.515 605.778 465.994 599.898 464.953 Z" fill="hsl(0, 45%, 65%)"></path><path d="M 518.903 290.333 C 525.021 312.659 524.384 330.76 516.996 344.638 C 509.608 358.515 506.803 376.019 508.59 397.15 L 527.026 373.691 C 526.756 387.168 526.924 397.456 527.529 404.554 C 528.133 411.652 529.436 418.645 531.441 425.534 L 540.406 405.714 C 544.309 414.397 548.58 421.638 553.213 427.439 C 557.851 433.241 565.374 440.759 575.781 449.993 C 577.735 435.905 578.675 425.209 578.6 417.905 C 578.53 410.6 577.414 403.449 575.255 396.451 L 587.928 409.838 C 588.77 402.996 587.923 396.74 585.388 391.069 C 582.857 385.397 579.224 377.604 574.488 367.69 L 594.455 382.98 C 588.37 364.223 577.288 348.537 561.22 335.922 C 545.151 323.307 535.326 308.381 531.734 291.142 C 529.58 290.164 527.668 289.607 525.984 289.474 C 524.3 289.34 521.941 289.627 518.903 290.333 Z" fill="rgb(255,148,106)"></path><path d="M 524.458 290.385 C 527.189 302.673 529.255 312.868 530.664 320.971 C 531.613 326.434 532.53 334.364 533.418 344.76 C 534.357 355.722 539.15 365.997 546.947 373.76 L 553.669 380.456 L 554.525 377.111 C 557.518 365.429 555.855 353.041 549.887 342.561 C 544.811 333.638 540.941 326.356 538.289 320.714 C 534.186 311.999 530.469 301.62 527.142 289.575 Z" fill="rgb(255,230,118)"></path><path d="M 446.609 418.695 C 444.515 423.868 442.531 427.549 440.657 429.739 C 439.672 430.889 438.416 432.238 436.888 433.785 C 436.505 434.173 435.895 434.224 435.453 433.904 C 435.01 433.585 434.866 432.991 435.112 432.505 L 437.552 427.703 C 437.697 427.418 437.708 427.083 437.581 426.79 C 437.454 426.496 437.202 426.275 436.895 426.185 C 436.162 425.972 435.377 426.279 434.984 426.933 L 429.72 435.69 C 429.495 436.065 429.039 436.232 428.625 436.093 C 428.211 435.953 427.949 435.544 427.997 435.109 L 429.077 425.275 L 436.514 415.133 Z" fill="#e2d0c3"></path><path d="M 353.565 413.114 L 313.956 364.424 L 243.443 386.283 C 242.808 386.48 242.4 387.098 242.468 387.76 C 242.536 388.421 243.062 388.943 243.724 389.006 L 278.489 392.326 L 287.544 411.469 C 287.86 412.137 288.641 412.443 289.327 412.167 L 309.972 403.866 L 325.171 415.681 C 325.415 415.87 325.714 415.973 326.022 415.975 L 347.823 416.063 Z" fill="hsl(0, 45%, 65%)"></path><g><defs><linearGradient id="idCHUDUupYbg66836161" gradientTransform="rotate(79, 0.5, 0.5)"><stop offset="0" stop-color="#f8e063" stop-opacity="1"></stop><stop offset="1" stop-color="#fdd7dd" stop-opacity="1"></stop></linearGradient></defs><path d="M 400.696 406.06 L 416.19 428.885 L 421.46 416.244 C 422.237 414.379 423.469 412.739 425.044 411.473 C 430.25 407.286 437.864 408.112 442.05 413.318 L 446.609 418.986 L 442.37 418.927 C 439.554 418.888 436.929 420.349 435.479 422.764 L 419.946 448.628 L 401.447 435.283 L 402.743 485.803 L 416.67 499.681 L 430.671 502.993 C 431.603 503.212 432.305 503.98 432.44 504.927 C 432.575 505.874 432.115 506.807 431.282 507.278 L 410.534 519.034 C 410.53 519.038 410.526 519.038 410.521 519.043 C 404.928 522.202 397.833 520.229 394.674 514.637 L 379.851 488.399 L 364.503 488.399 L 364.503 516.201 L 373.613 521.29 C 374.352 521.704 374.718 522.565 374.505 523.385 C 374.292 524.205 373.552 524.777 372.705 524.779 L 340.92 524.779 C 340.582 524.779 340.245 524.756 339.909 524.714 C 335.318 524.156 332.049 519.983 332.607 515.391 L 335.889 488.399 L 287.055 514.405 C 284.692 515.665 282.121 516.489 279.466 516.838 L 218.187 524.882 L 314.038 453.062 L 336.869 401.606 C 337.217 400.819 337.653 400.073 338.167 399.382 L 337.329 399.383 L 345.896 196.779 C 346.931 172.318 366.746 152.845 391.221 152.237 L 520.346 149.028 C 545.002 148.253 557.33 162.365 557.33 191.363 C 557.33 195.723 552.292 218.983 542.211 261.146 C 548.552 266.758 549.143 276.447 543.532 282.787 C 543.174 283.188 542.802 283.57 542.406 283.931 C 542.374 283.959 542.346 283.987 542.313 284.016 C 541.32 284.951 540.233 285.782 539.071 286.497 L 539.499 288.968 C 539.661 289.922 539.592 290.9 539.299 291.822 C 538.289 295.006 534.888 296.768 531.706 295.757 L 524.602 293.502 L 519.043 296.764 C 518.453 297.11 517.808 297.353 517.136 297.484 C 513.856 298.12 510.683 295.977 510.046 292.698 L 508.357 283.975 L 508.25 283.941 L 497.783 261.146 L 458.239 229.511 L 425.98 227.589 C 421.502 227.322 417.61 230.631 417.152 235.094 L 400.482 397.704 Z" fill="url(#idCHUDUupYbg66836161)"></path></g><path d="M 544.825 236.021 C 547.226 234.111 552.962 235.742 552.557 240.306 C 552.157 244.87 548.933 252.126 543.504 247.522 C 538.08 242.918 542.43 237.931 544.825 236.021 Z M 500.602 237.75 C 501.774 234.917 507.58 233.563 509.441 237.75 C 511.302 241.937 512 249.845 505.021 248.45 C 498.043 247.054 499.434 240.582 500.602 237.75 Z" fill="rgb(255,255,255)"></path><path d="M 542.937 242.91 C 542.941 242.601 543.069 242.307 543.29 242.093 C 543.512 241.879 543.81 241.761 544.118 241.767 L 549.236 241.856 C 549.544 241.861 549.837 241.989 550.051 242.211 C 550.265 242.433 550.382 242.731 550.375 243.039 C 550.371 243.348 550.243 243.641 550.022 243.856 C 549.8 244.07 549.502 244.188 549.194 244.182 L 544.076 244.093 C 543.768 244.087 543.475 243.96 543.261 243.738 C 543.047 243.516 542.93 243.218 542.937 242.91 Z M 502.202 242.937 C 502.214 242.296 502.742 241.785 503.384 241.794 L 508.501 241.884 C 509.143 241.895 509.655 242.424 509.646 243.067 C 509.634 243.708 509.106 244.22 508.464 244.209 L 503.347 244.12 C 502.704 244.108 502.193 243.579 502.202 242.937 Z" fill="rgb(51,78,98)"></path><g><defs><linearGradient id="idPWCwup9RSg-1854924118" gradientTransform="rotate(159, 0.5, 0.5)"><stop offset="0" stop-color="rgb(242, 219, 135)" stop-opacity="1"></stop><stop offset="1" stop-color="#fed8d7" stop-opacity="1"></stop></linearGradient></defs><path d="M 335.725 488.129 L 328.443 527.249 L 372.849 527.017 C 373.836 527.012 374.781 526.615 375.475 525.914 C 376.17 525.212 376.557 524.264 376.551 523.277 C 376.548 522.648 376.385 522.03 376.079 521.481 L 375.511 520.467 L 366.15 516.033 L 364.589 488.39 Z M 323.164 355.591 L 261.777 365.658 C 261.121 365.765 260.632 366.32 260.608 366.984 C 260.584 367.648 261.032 368.237 261.678 368.392 L 301.39 377.9 L 304.273 397.463 C 304.381 398.195 305.042 398.716 305.78 398.649 L 335.101 395.978 L 341.735 410.013 C 341.939 410.444 342.349 410.741 342.822 410.801 L 370.077 414.228 L 374.775 419.338 C 375.503 420.131 376.701 420.275 377.596 419.677 C 378.481 419.087 378.779 417.924 378.287 416.981 L 376.227 413.029 C 376.103 412.79 375.981 412.55 375.861 412.309 L 356.135 372.508 C 350.054 360.239 336.677 353.375 323.164 355.591 Z" fill="url(#idPWCwup9RSg-1854924118)"></path></g><g><defs><linearGradient id="idmWqbgiU0xg-379198586" gradientTransform="rotate(43, 0.5, 0.5)"><stop offset="0" stop-color="hsl(357, 55%, 69%)" stop-opacity="1"></stop><stop offset="1" stop-color="hsl(17, 80%, 8%)" stop-opacity="1"></stop></linearGradient></defs><path d="M 340.469 332.208 L 311.786 352.583 C 311.268 352.951 310.566 352.922 310.08 352.512 C 309.594 352.103 309.445 351.416 309.719 350.843 L 343.144 281.001 L 316.893 293.638 C 316.366 293.892 315.736 293.79 315.316 293.383 C 314.896 292.975 314.775 292.349 315.012 291.815 L 344.73 224.871 L 326.991 234.269 C 326.46 234.55 325.808 234.46 325.373 234.044 C 324.939 233.629 324.819 232.981 325.077 232.438 L 348.563 182.87 Z M 443.372 150.562 L 418.1 178.63 C 417.361 179.451 416.146 179.638 415.193 179.078 C 414.24 178.518 413.813 177.365 414.171 176.32 L 421.279 155.562 L 378.452 186.87 C 377.597 187.494 376.428 187.461 375.609 186.791 C 374.789 186.121 374.525 184.982 374.967 184.02 L 389.438 152.571 Z M 314.022 453.28 L 293.593 457.345 C 293.153 457.433 292.781 457.727 292.595 458.136 C 292.409 458.545 292.431 459.018 292.654 459.408 L 295.568 464.498 L 278.142 469.06 C 277.397 469.255 276.951 470.017 277.145 470.763 C 277.213 471.023 277.355 471.261 277.553 471.437 L 281.351 474.922 L 262.91 479.621 C 262.32 479.77 261.895 480.284 261.859 480.891 C 261.823 481.499 262.185 482.059 262.753 482.277 L 268.685 484.561 L 248.665 492.302 C 248.088 492.525 247.727 493.102 247.778 493.718 C 247.829 494.335 248.281 494.844 248.887 494.968 L 256.536 496.545 Z M 515.363 250.725 C 515.307 253.499 501.216 237.807 483.473 198.602 C 477.132 184.588 466.808 156.69 452.501 114.909 L 479.551 160.114 L 485.054 129.34 L 495.377 186.83 L 503.584 173.066 C 511.525 220.578 515.452 246.464 515.363 250.725 Z M 541.913 248.459 C 540.652 250.197 538.694 233.949 544.816 201.13 C 547.007 189.398 552.813 167.068 562.243 134.141 L 559.34 174.917 L 576.404 157.805 L 557.526 198.946 L 568.779 193.849 C 552.804 227.585 543.848 245.789 541.913 248.459 Z" fill="url(#idmWqbgiU0xg-379198586)"></path></g><path d="M 542.411 261.162 C 542.318 261.401 542.043 261.518 541.806 261.423 C 541.568 261.327 541.452 261.058 541.546 260.819 C 545.835 250.016 553.502 247.273 564.285 252.666 C 567.281 254.164 570.384 257.012 574.046 261.4 C 575.525 263.176 577.084 265.176 579.005 267.752 C 580.033 269.132 583.611 274.002 584.099 274.663 C 590.97 283.938 595.525 289.171 600.582 292.912 C 607.002 297.66 613.212 298.811 619.711 295.846 C 622.089 294.76 624.238 293.688 626.15 292.632 C 633.045 288.825 635.547 280.151 631.742 273.258 C 631.018 271.951 630.095 270.765 629.006 269.743 C 625.634 266.585 620.339 266.759 617.181 270.13 C 616.939 270.391 616.711 270.667 616.501 270.957 L 615.162 272.816 C 615.09 272.915 614.981 272.983 614.86 273.002 C 614.739 273.022 614.615 272.993 614.515 272.921 C 614.306 272.771 614.259 272.48 614.408 272.271 L 615.748 270.412 C 615.98 270.091 616.232 269.784 616.501 269.494 C 620.014 265.748 625.894 265.555 629.639 269.064 C 630.801 270.152 631.785 271.415 632.556 272.808 C 636.608 280.151 633.942 289.391 626.601 293.446 C 624.666 294.515 622.498 295.597 620.098 296.693 C 613.264 299.811 606.704 298.595 600.028 293.66 C 594.873 289.848 590.277 284.563 583.355 275.217 C 582.862 274.554 579.284 269.686 578.256 268.308 C 576.344 265.744 574.799 263.757 573.329 261.996 C 569.742 257.699 566.723 254.926 563.867 253.498 C 553.562 248.346 546.496 250.875 542.411 261.162 Z M 510.143 262.558 C 506.059 252.271 498.992 249.741 488.688 254.894 C 484.882 256.795 481.132 261.341 476.234 269.348 C 475.334 270.823 474.45 272.307 473.582 273.8 C 473.134 274.563 472.689 275.327 472.247 276.093 C 472.303 275.997 471.209 277.881 470.907 278.405 C 464.496 289.448 460.869 294.806 456.473 298.803 C 450.66 304.087 444.844 304.871 438.66 300.368 C 428.156 292.719 426.284 284.078 433.126 274.657 C 436.317 270.264 442.463 269.29 446.855 272.48 C 448.43 273.624 449.63 275.209 450.303 277.035 C 450.391 277.276 450.268 277.544 450.027 277.632 C 449.786 277.721 449.518 277.598 449.429 277.357 C 448.82 275.703 447.734 274.268 446.309 273.233 C 442.332 270.345 436.767 271.227 433.879 275.204 C 427.353 284.189 429.101 292.256 439.207 299.615 C 445.008 303.84 450.341 303.119 455.847 298.115 C 460.147 294.206 463.742 288.893 470.102 277.938 C 470.405 277.414 471.498 275.531 471.442 275.626 C 471.977 274.7 472.382 274.006 472.777 273.331 C 473.782 271.607 474.629 270.186 475.438 268.863 C 480.43 260.709 484.259 256.067 488.269 254.061 C 499.057 248.669 506.719 251.412 511.009 262.215 C 511.102 262.453 510.985 262.724 510.748 262.819 C 510.509 262.912 510.239 262.796 510.143 262.558 Z" fill="rgb(51,78,98)"></path><path d="M 510.576 262.309 C 517.354 262.981 521.932 265.075 524.3 268.589 C 526.668 272.103 525.896 276.91 521.974 283.011 Z" fill="hsl(349, 57%, 81%)"></path></svg>