<svg xmlns="http://www.w3.org/2000/svg"  viewBox="0 0 100 100" width="100px" height="100px"><path fill="#ee3e54" d="M13 27A2 2 0 1 0 13 31A2 2 0 1 0 13 27Z"/><path fill="#f1bc19" d="M77 12A1 1 0 1 0 77 14A1 1 0 1 0 77 12Z"/><path fill="#fce0a2" d="M50 13A37 37 0 1 0 50 87A37 37 0 1 0 50 13Z"/><path fill="#f1bc19" d="M83 11A4 4 0 1 0 83 19A4 4 0 1 0 83 11Z"/><path fill="#ee3e54" d="M87 22A2 2 0 1 0 87 26A2 2 0 1 0 87 22Z"/><path fill="#fbcd59" d="M81 74A2 2 0 1 0 81 78 2 2 0 1 0 81 74zM15 59A4 4 0 1 0 15 67 4 4 0 1 0 15 59z"/><path fill="#ee3e54" d="M25 85A2 2 0 1 0 25 89A2 2 0 1 0 25 85Z"/><path fill="#fff" d="M18.5 51A2.5 2.5 0 1 0 18.5 56A2.5 2.5 0 1 0 18.5 51Z"/><path fill="#f1bc19" d="M21 66A1 1 0 1 0 21 68A1 1 0 1 0 21 66Z"/><path fill="#fff" d="M80 33A1 1 0 1 0 80 35A1 1 0 1 0 80 33Z"/><g><path fill="#127ad8" d="M35,72.3c-4,0-7.3-3.3-7.3-7.3V35c0-4,3.3-7.3,7.3-7.3h30c4,0,7.3,3.3,7.3,7.3v30c0,4-3.3,7.3-7.3,7.3H35z"/><path fill="#472b29" d="M65,28.4c3.6,0,6.6,3,6.6,6.6v30c0,3.6-3,6.6-6.6,6.6H35c-3.6,0-6.6-3-6.6-6.6V35c0-3.6,3-6.6,6.6-6.6H65 M65,27H35c-4.4,0-8,3.6-8,8v30c0,4.4,3.6,8,8,8h30c4.4,0,8-3.6,8-8V35C73,30.6,69.4,27,65,27L65,27z"/></g><g><path fill="#fdfcee" d="M63.6,68.5H36.5c-2.7,0-4.8-2.2-4.8-4.8V36.3c0-2.7,2.2-4.8,4.8-4.8h27.1c2.7,0,4.8,2.2,4.8,4.8v27.3 C68.4,66.3,66.3,68.5,63.6,68.5z"/></g><g><path fill="#472b29" d="M68.5,47.4c-0.3,0-0.5-0.2-0.5-0.5V43c0-0.3,0.2-0.5,0.5-0.5S69,42.7,69,43v3.9C69,47.2,68.8,47.4,68.5,47.4z"/></g><g><path fill="#472b29" d="M68.5,40.5c-0.3,0-0.5-0.2-0.5-0.5v-2c0-0.3,0.2-0.5,0.5-0.5S69,37.7,69,38v2C69,40.3,68.8,40.5,68.5,40.5z"/></g><g><path fill="#472b29" d="M64,69H36c-2.8,0-5-2.2-5-5V36c0-2.8,2.2-5,5-5h25.4c0.3,0,0.5,0.2,0.5,0.5S61.7,32,61.4,32H36 c-2.2,0-4,1.8-4,4v28c0,2.2,1.8,4,4,4h28c2.2,0,4-1.8,4-4V49.6c0-0.3,0.2-0.5,0.5-0.5s0.5,0.2,0.5,0.5V64C69,66.8,66.8,69,64,69z"/></g><g><path fill="#127ad8" d="M60.5,51.6v6.9h-4.1l-0.1-6.9c0-1.7-0.8-3-2.4-3c-1.2,0-1.9,0.8-2.2,1.6c-0.1,0.3-0.1,0.7-0.1,1v7.2h-4.2 c0,0,0.1-11.7,0-12.9h4.2v2c0,0,0,0,0,0h0v0c0.6-1,1.6-2.1,3.9-2.1C58.4,45.5,60.5,47.3,60.5,51.6z"/><path fill="#472b29" d="M60.5,59h-4.1c-0.3,0-0.5-0.2-0.5-0.5l-0.1-6.9c0-0.7-0.2-2.5-1.9-2.5c-1.1,0-1.6,0.9-1.8,1.3 c0,0.1-0.1,0.4-0.1,0.9v7.2c0,0.3-0.2,0.5-0.5,0.5h-4.2c-0.1,0-0.3-0.1-0.4-0.1c-0.1-0.1-0.1-0.2-0.1-0.4c0-0.1,0.1-11.7,0-12.9 c0-0.1,0-0.3,0.1-0.4c0.1-0.1,0.2-0.2,0.4-0.2h4.2c0.3,0,0.5,0.2,0.5,0.5v0.6c0.9-0.8,2-1.2,3.4-1.2c1.6,0,2.8,0.5,3.8,1.4 c1.1,1.1,1.7,2.9,1.7,5.2v6.9C61,58.8,60.8,59,60.5,59z M56.9,58H60v-6.4c0-2-0.5-3.5-1.4-4.5c-0.7-0.7-1.8-1.1-3-1.1 c-2.1,0-3,1-3.5,1.8c-0.2,0.4-0.7,0.4-0.9,0.1c-0.1-0.1-0.1-0.3,0-0.4v-1.4h-3.2c0,2.2,0,9.9,0,11.9h3.2v-6.7 c0-0.5,0.1-0.9,0.2-1.2c0.5-1.2,1.5-1.9,2.7-1.9c1.8,0,2.9,1.3,2.9,3.5L56.9,58z"/></g><g><path fill="#127ad8" d="M42.4,39.8c-1.2,0-2,0.8-2,2c0,1.1,0.8,2,2,2h0c1.3,0,2-0.9,2-2C44.4,40.6,43.6,39.8,42.4,39.8z"/><path fill="#472b29" d="M42.4,44.2c-1.5,0-2.5-1-2.5-2.5s1.1-2.5,2.5-2.5c1.4,0,2.5,1,2.5,2.4C44.9,43.2,43.8,44.2,42.4,44.2z M42.4,40.3c-0.9,0-1.5,0.6-1.5,1.5c0,0.9,0.6,1.5,1.5,1.5c0.9,0,1.6-0.6,1.6-1.5C43.9,40.9,43.3,40.3,42.4,40.3z"/></g><g><path fill="#127ad8" d="M40.4 45.6H44.6V58.5H40.4z"/><path fill="#472b29" d="M44.6,59h-4.2c-0.3,0-0.5-0.2-0.5-0.5V45.6c0-0.3,0.2-0.5,0.5-0.5h4.2c0.3,0,0.5,0.2,0.5,0.5v12.9 C45.1,58.8,44.9,59,44.6,59z M40.9,58h3.2V46.1h-3.2V58z"/></g></svg>